<?xml version="1.0" encoding="UTF-8" standalone="no"?>
<svg
   viewBox="0 0 512 512"
   version="1.1"
   id="svg3360"
   sodipodi:docname="phone-solid.svg"
   inkscape:version="1.2 (1:1.2+202206011327+fc4e4096c5)"
   xmlns:inkscape="http://www.inkscape.org/namespaces/inkscape"
   xmlns:sodipodi="http://sodipodi.sourceforge.net/DTD/sodipodi-0.dtd"
   xmlns="http://www.w3.org/2000/svg"
   xmlns:svg="http://www.w3.org/2000/svg">
  <defs
     id="defs3364" />
  <sodipodi:namedview
     id="namedview3362"
     pagecolor="#ffffff"
     bordercolor="#000000"
     borderopacity="0.25"
     inkscape:showpageshadow="2"
     inkscape:pageopacity="0.0"
     inkscape:pagecheckerboard="0"
     inkscape:deskcolor="#d1d1d1"
     showgrid="false"
     inkscape:zoom="1.1683835"
     inkscape:cx="54.776537"
     inkscape:cy="265.32385"
     inkscape:window-width="1920"
     inkscape:window-height="1052"
     inkscape:window-x="0"
     inkscape:window-y="0"
     inkscape:window-maximized="1"
     inkscape:current-layer="svg3360" />
  <!--! Font Awesome Pro 6.1.1 by @fontawesome - https://fontawesome.com License - https://fontawesome.com/license (Commercial License) Copyright 2022 Fonticons, Inc. -->
  <path
     d="m 486.9309,373.88852 -21.03902,90.7103 c -2.95542,12.82363 -14.28844,21.79567 -27.56338,21.79567 C 210.03022,486.37649 24.343872,301.71624 24.343872,74.670519 c 0,-13.192589 9.02099,-24.477382 21.91678,-27.402069 L 137.475,26.345687 c 13.28399,-3.061472 26.85755,3.795794 32.37747,16.306256 l 42.09614,97.639557 c 4.92087,11.50077 1.60168,24.90034 -8.12604,32.80149 l -48.72004,38.90284 c 30.74864,62.29134 81.67665,112.93793 144.33222,143.53465 l 39.88818,-48.41482 c 7.86181,-9.70096 21.43718,-13.0576 33.00185,-8.07663 l 98.18211,41.85452 c 11.809,6.17784 19.50069,19.85638 16.42401,32.99497 z"
     id="path3358"
     style="fill:#000000;fill-opacity:0;stroke:#ffffff;stroke-width:45;stroke-linecap:round;stroke-linejoin:round;stroke-dasharray:none;stroke-opacity:1;paint-order:stroke fill markers" />
</svg>
