<?xml version="1.0" encoding="UTF-8" standalone="no"?>
<svg
   viewBox="0 0 48 48"
   width="48px"
   height="48px"
   version="1.1"
   id="svg58"
   sodipodi:docname="mongodb.svg"
   inkscape:version="1.2 (1:1.2.1+202207142221+cd75a1ee6d)"
   xmlns:inkscape="http://www.inkscape.org/namespaces/inkscape"
   xmlns:sodipodi="http://sodipodi.sourceforge.net/DTD/sodipodi-0.dtd"
   xmlns="http://www.w3.org/2000/svg"
   xmlns:svg="http://www.w3.org/2000/svg">
  <defs
     id="defs62" />
  <sodipodi:namedview
     id="namedview60"
     pagecolor="#ffffff"
     bordercolor="#000000"
     borderopacity="0.25"
     inkscape:showpageshadow="2"
     inkscape:pageopacity="0.0"
     inkscape:pagecheckerboard="0"
     inkscape:deskcolor="#d1d1d1"
     showgrid="false"
     inkscape:zoom="12.462757"
     inkscape:cx="20.942397"
     inkscape:cy="27.361522"
     inkscape:window-width="1920"
     inkscape:window-height="1052"
     inkscape:window-x="0"
     inkscape:window-y="0"
     inkscape:window-maximized="1"
     inkscape:current-layer="svg58" />
  <path
     fill="#5d4037"
     d="M 43.847759,16.612223 C 43.847759,39.216615 24,46.053065 24,46.053065 c 0,0 -19.8477587,-6.83645 -19.8477587,-29.440842 0,-2.756633 0.2205307,-5.072205 0.4410613,-6.9467154 C 4.9240986,6.9088745 6.7986091,4.7035679 9.444977,4.041976 12.863202,3.049588 18.266203,1.9469348 24,1.9469348 c 5.733797,0 11.136798,1.1026532 14.665288,2.0950412 2.646368,0.6615919 4.520879,2.9771638 4.851675,5.6235316 0.110265,1.8745104 0.330796,4.3003474 0.330796,6.9467154 z"
     id="path48"
     style="stroke-width:1.10265" />
  <path
     fill="#4caf50"
     d="m 24,5.2548946 c 5.403001,0 10.475206,1.1026532 13.783166,1.9847758 1.323184,0.330796 2.205306,1.4334493 2.425837,2.8668986 0.220531,2.095041 0.330796,4.300348 0.330796,6.505654 C 40.539799,33.813614 27.859286,40.76033 24,42.414309 20.140714,40.650064 7.4602011,33.703349 7.4602011,16.612223 c 0,-2.205306 0.1102653,-4.410613 0.330796,-6.505654 C 7.9012624,8.6731197 8.8936503,7.5704664 10.216834,7.2396704 13.524794,6.3575478 18.596999,5.2548946 24,5.2548946 m 0,-3.3079598 c -5.733797,0 -11.136798,1.1026532 -14.6652884,2.0950412 C 6.7986091,4.7035679 4.8138333,7.0191398 4.5933026,9.6655076 4.372772,11.540018 4.1522413,13.965855 4.1522413,16.612223 4.1522413,39.216615 24,46.053065 24,46.053065 c 0,0 19.847759,-6.83645 19.847759,-29.440842 0,-2.756633 -0.220531,-5.072205 -0.441062,-6.9467154 C 43.075901,6.9088745 41.201391,4.7035679 38.555023,4.041976 35.136798,3.049588 29.733797,1.9469348 24,1.9469348 Z"
     id="path50"
     style="stroke-width:1.10265" />
  <path
     fill="#dcedc8"
     d="m 22.897347,28.410613 h 2.205306 v 8.821226 h -2.205306 z"
     id="path52"
     style="stroke-width:1.10265" />
  <path
     fill="#4caf50"
     d="m 24,8.5628543 c 0,0 -6.61592,5.5132667 -6.61592,14.3344927 0,5.733797 3.638756,9.372552 5.513267,11.026532 L 24,30.61592 25.102653,33.923879 C 26.977164,32.269899 30.61592,28.631144 30.61592,22.897347 30.61592,14.076121 24,8.5628543 24,8.5628543 Z"
     id="path54"
     style="stroke-width:1.10265" />
  <path
     fill="#81c784"
     d="m 24,8.5628543 c 0,0 -6.61592,5.5132667 -6.61592,14.3344927 0,5.733797 3.638756,9.372552 5.513267,11.026532 L 24,30.61592 Z"
     id="path56"
     style="stroke-width:1.10265" />
</svg>
